<svg xmlns="http://www.w3.org/2000/svg" width="45" height="45" viewBox="0 0 45 45"><g transform="translate(-1294 -18)"><circle cx="22.5" cy="22.5" r="22.5" transform="translate(1294 18)" fill="#5865f2"/><path d="M22.777,1.743A21.9,21.9,0,0,0,17.23,0a16.28,16.28,0,0,0-.711,1.475,20.369,20.369,0,0,0-6.148,0A15.77,15.77,0,0,0,9.652,0,21.827,21.827,0,0,0,4.1,1.748,23.265,23.265,0,0,0,.114,17.326a22.179,22.179,0,0,0,6.8,3.486,16.924,16.924,0,0,0,1.457-2.4A14.324,14.324,0,0,1,6.08,17.3c.192-.143.381-.292.563-.445a15.679,15.679,0,0,0,13.6,0c.184.153.372.3.562.445a14.286,14.286,0,0,1-2.3,1.119,16.84,16.84,0,0,0,1.457,2.4,22.134,22.134,0,0,0,6.808-3.488A23.242,23.242,0,0,0,22.777,1.743ZM8.978,14.19A2.61,2.61,0,0,1,6.56,11.44,2.6,2.6,0,0,1,8.978,8.688a2.58,2.58,0,0,1,2.417,2.752A2.593,2.593,0,0,1,8.978,14.19Zm8.933,0a2.61,2.61,0,0,1-2.417-2.75,2.6,2.6,0,0,1,2.417-2.752,2.58,2.58,0,0,1,2.417,2.752A2.594,2.594,0,0,1,17.911,14.19Z" transform="translate(1303 30)" fill="#fff"/></g></svg>