<?xml version="1.0" encoding="UTF-8"?><svg id="c" xmlns="http://www.w3.org/2000/svg" viewBox="0 0 500 136.6"><path d="m156.51,97.57h-14.91l-2.44-16.24h-10.87l-2.49,16.24h-12.29s28.36-44.63-2.57-78.19c3.3,0,25.48,22.7,25.48,22.7l20.09,55.48Zm-19.26-28.75l-7.76-23.65s2.81,13.31.66,23.65h7.1Z"/><path d="m161.38,38.36h14.68c9,.02,13.51,4.29,13.51,12.8v8.74c0,5.36-2.44,8.83-7.33,10.42l10.79,27.25h-12.2l-7.66-25.47h-.6v25.47h-11.19v-59.2Zm11.19,9.44v15.42h1.34c1.21,0,1.99-.05,2.35-.17,1.41-.49,2.12-1.54,2.12-3.16v-8.74c0-2.24-1.1-3.36-3.29-3.36h-2.52Z"/><path d="m217.36,67.96l12.84,29.6h-11.96l-8.63-22.04v22.04h-11.19v-59.2h11.19v22.04l8.63-22.04h11.96l-12.84,29.6Z"/><path d="m252.97,38.36h15.49c9,.02,13.51,4.29,13.51,12.8v33.63c0,8.49-4.69,12.75-14.08,12.77h-14.92v-59.2Zm11.19,9.44v40.32h3.33c2.2,0,3.29-1.11,3.29-3.33v-33.63c0-2.24-1.1-3.36-3.29-3.36h-3.33Z"/><path d="m318.7,85.84c0,8.51-4.84,12.78-14.52,12.8-9.65,0-14.48-4.27-14.48-12.8v-47.34h11.19v47.34c0,2.22,1.1,3.33,3.29,3.33s3.33-1.11,3.33-3.33v-47.34h11.19v47.34Z"/><path d="m327.09,38.36h11.05l7.46,29.16v-29.16h10.48v59.2h-11.05l-7.12-28.36v28.36h-10.82v-59.2Z"/><path d="m379.17,63.36h13.98v22.48c0,8.51-4.84,12.78-14.52,12.8-9.65,0-14.48-4.27-14.48-12.8v-35.48c0-8.51,4.83-12.77,14.48-12.77s14.52,4.26,14.52,12.77v8.4h-11.19v-8.4c0-2.22-1.1-3.34-3.29-3.36h-.07c-2.17,0-3.26,1.12-3.26,3.36v35.48c0,2.22,1.1,3.33,3.29,3.33s3.33-1.11,3.33-3.33v-13h-2.79v-9.48Z"/><path d="m401.21,38.36h26.34v9.44h-15.15v15.42h13.04v9.48h-13.04v15.42h15.15v9.44h-26.34v-59.2Z"/><path d="m462.94,85.84c0,8.51-4.84,12.78-14.52,12.8-9.65,0-14.48-4.27-14.48-12.8v-35.48c0-8.51,4.83-12.77,14.48-12.77s14.52,4.26,14.52,12.77v35.48Zm-11.19-35.48c0-2.22-1.1-3.34-3.29-3.36h-.07c-2.17,0-3.26,1.12-3.26,3.36v35.48c0,2.22,1.1,3.33,3.29,3.33s3.33-1.11,3.33-3.33v-35.48Z"/><path d="m471,38.36h11.05l7.46,29.16v-29.16h10.48v59.2h-11.05l-7.12-28.36v28.36h-10.82v-59.2Z"/><g><path d="m148.5,133.36l3.52-24.18h2.7l-1.23,9.26-2.78,17.7h-4.37l-2.75-18.95-2.74,18.95h-4.4l-2.79-17.73-1.22-9.23h2.69l3.52,24.17,3.52-24.17h2.82l3.52,24.18Z"/><path d="m183.95,131.34c0,3.5-1.73,5.25-5.18,5.26-3.44,0-5.17-1.75-5.17-5.26v-17.37c0-3.5,1.72-5.25,5.17-5.25s5.18,1.75,5.18,5.25v17.37Zm-2.67-17.37c0-1.74-.83-2.62-2.49-2.63h-.03c-1.65,0-2.48.88-2.48,2.63v17.37c0,1.75.83,2.63,2.49,2.63s2.51-.88,2.51-2.63v-17.37Z"/><path d="m204.07,109.18h5.26c3.15,0,4.73,1.76,4.73,5.26v4.26c0,2.17-1.14,3.68-3.41,4.52l4.51,12.92h-2.96l-3.73-12.56-1.73.1v12.47h-2.67v-26.96Zm2.67,2.6v9.56h1.64c.66,0,1.14-.05,1.44-.15,1.04-.44,1.56-1.27,1.56-2.49v-4.26c0-1.77-.83-2.66-2.48-2.66h-2.16Z"/><path d="m234.18,136.14v-26.96h2.67v24.36h6.52v2.6h-9.19Z"/><path d="m262.54,109.18h5.6c3.16,0,4.74,1.76,4.74,5.26v16.45c0,3.49-1.67,5.24-5.01,5.25h-5.33v-26.96Zm2.67,2.6v21.76h2.51c1.66,0,2.49-.88,2.49-2.64v-16.45c0-1.77-.83-2.66-2.49-2.66h-2.51Z"/></g><g><path d="m20.66,44.23s.86,4.06.25,6.04l6.95,3.35s-1.98-11.62,14.41-13.6c2.08-1.73,5.09-8.37,2.3-10.05-7.77,4.77-8.95,5.38-8.95,5.38l-2.25-.89.37,3.07-3.44-.93.45,3.16-3.27-1.23.74,2.86-3.59-.42.8,3.21-4.77.05Z"/><path d="m97.53,89c.15.09-.16,1.77-.2,2-.11.72-.26,1.43-.44,2.13-.37,1.4-.9,2.75-1.57,4.03-1.35,2.56-3.29,4.8-5.7,6.41-3.15,2.11-7.49,2.38-11.16,2.01-4.33-.43-8.56-1.69-12.67-3.06s-8.46-3.04-12.74-4.4c-3.57-1.14-7.33-2.23-11.11-2.19-2.39.02-4.8.61-6.61,2.25-11.47,12.64,2.94,32.83,15.72,37.92h36.2s15.89-15.89,28.78-28.78c-4.22-9.73-13.16-15.31-18.51-18.31Z"/><path d="m117.47,105.88c2.91-2.91,5.73-5.73,8.3-8.3C123.34,3.78,67.07,12.18,65.25,12.58c-1.83.41-2.92,3.02-2.26,4.67-1.32-.96-2.13-3.4,3.1-8.86-7.79,1.78-15.96,6.57-15.96,6.57,0,0-1.7-.43-4.85-1.24-6.8,3.25-8.22,12.28-8.22,12.28C36.14,17.12,47.81,4.38,57.35.02,40.1-.69,22.99,17.99,22.99,17.99l-1.22,7.06-9.44,9.34,5.68,6.45,4.57.81-.71-3.2,3.86.61-.51-2.94,3.45.96-.61-2.79,3.35.76-.3-2.79,2.44.25c21.77-19.74,44.46-6.14,49.08,2.89-14.36-12.99-29.44-10.46-35.63-6.6,3.1,3.2-.1,7.56-.1,7.56,33.79-16.38,51.6,24.85,51.13,48.68,5.94,2.62,14.44,8.4,19.44,20.84Z"/><path d="m45.27,136.1s-34.69-19.11-9.57-57.48c8.68-14.62,7.98-29.76,2.51-32.58,11.38,18.38-12.94,38.85-28.02,57.83C-4.87,125.29,1.22,136.1,1.22,136.1h44.06Z"/></g></svg>