<?xml version="1.0" encoding="UTF-8"?><svg style="color:#FF5959;" id="c" xmlns="http://www.w3.org/2000/svg" viewBox="0 0 200 200"><path fill="currentColor" d="m39.29,65.76s1.24,5.84.36,8.68l10,4.82s-2.85-16.71,20.72-19.55c2.99-2.48,7.31-12.04,3.3-14.45-11.16,6.86-12.86,7.73-12.86,7.73l-3.23-1.28.53,4.41-4.95-1.34.64,4.55-4.71-1.77,1.06,4.1-5.16-.6,1.15,4.61-6.86.07Z"/><path fill="currentColor" d="m149.79,130.12c.22.12-.23,2.54-.28,2.87-.15,1.03-.37,2.06-.63,3.06-.53,2.01-1.29,3.96-2.26,5.8-1.94,3.68-4.73,6.9-8.19,9.21-4.53,3.03-10.77,3.42-16.04,2.89-6.23-.62-12.3-2.43-18.22-4.39s-12.16-4.37-18.31-6.33c-5.13-1.63-10.54-3.21-15.97-3.15-3.43.03-6.9.88-9.5,3.23-16.49,18.17,4.22,47.19,22.6,54.5h52.04s22.84-22.84,41.37-41.37c-6.07-13.99-18.92-22-26.6-26.33Z"/><path fill="currentColor" d="m178.47,154.38c4.18-4.18,8.23-8.23,11.93-11.93C186.9,7.61,106.02,19.68,103.39,20.27c-2.63.58-4.2,4.34-3.25,6.71-1.9-1.39-3.06-4.89,4.45-12.73-11.2,2.55-22.95,9.45-22.95,9.45,0,0-2.44-.62-6.97-1.79-9.78,4.67-11.82,17.66-11.82,17.66-1.31-12.77,15.47-31.08,29.19-37.36-24.81-1.02-49.4,25.83-49.4,25.83l-1.75,10.14-13.57,13.43,8.17,9.27,6.57,1.17-1.02-4.6,5.55.88-.73-4.23,4.96,1.39-.88-4.01,4.82,1.09-.44-4.01,3.5.36c31.3-28.38,63.92-8.83,70.55,4.16-20.65-18.68-42.32-15.03-51.22-9.49,4.45,4.6-.15,10.87-.15,10.87,48.58-23.55,74.18,35.72,73.5,69.97,8.54,3.77,20.76,12.07,27.95,29.95Z"/><path fill="currentColor" d="m74.68,197.82s-49.87-27.47-13.75-82.63c12.48-21.01,11.47-42.78,3.61-46.84,16.36,26.42-18.61,55.85-40.28,83.13-21.67,30.79-12.91,46.33-12.91,46.33h63.33Z"/></svg>